<mxfile host="Electron" modified="2023-11-24T13:03:18.483Z" agent="Mozilla/5.0 (Windows NT 10.0; Win64; x64) AppleWebKit/537.36 (KHTML, like Gecko) draw.io/22.1.2 Chrome/114.0.5735.289 Electron/25.9.4 Safari/537.36" etag="7iFsUZXaf_vahAxkW6sN" version="22.1.2" type="device">
  <diagram id="R2lEEEUBdFMjLlhIrx00" name="Page-1">
    <mxGraphModel dx="2045" dy="697" grid="1" gridSize="10" guides="1" tooltips="1" connect="1" arrows="1" fold="1" page="1" pageScale="1" pageWidth="850" pageHeight="1100" math="0" shadow="0" extFonts="Permanent Marker^https://fonts.googleapis.com/css?family=Permanent+Marker">
      <root>
        <mxCell id="0" />
        <mxCell id="1" parent="0" />
        <mxCell id="T3MYkBjEII2z4H54Sbim-50" value="module" style="swimlane;childLayout=stackLayout;horizontal=1;startSize=40;horizontalStack=0;rounded=1;fontSize=14;fontStyle=0;strokeWidth=2;resizeParent=0;resizeLast=1;shadow=0;dashed=0;align=center;arcSize=4;whiteSpace=wrap;html=1;" parent="1" vertex="1">
          <mxGeometry x="780" y="560" width="166" height="140" as="geometry" />
        </mxCell>
        <mxCell id="T3MYkBjEII2z4H54Sbim-51" value="*module_id&lt;br&gt;versie&lt;br&gt;beschrijving&lt;br&gt;naamContact&lt;br&gt;emailContact" style="align=left;strokeColor=none;fillColor=none;spacingLeft=4;fontSize=12;verticalAlign=top;resizable=0;rotatable=0;part=1;html=1;" parent="T3MYkBjEII2z4H54Sbim-50" vertex="1">
          <mxGeometry y="40" width="166" height="100" as="geometry" />
        </mxCell>
        <mxCell id="T3MYkBjEII2z4H54Sbim-52" value="Webcast" style="swimlane;childLayout=stackLayout;horizontal=1;startSize=50;horizontalStack=0;rounded=1;fontSize=14;fontStyle=0;strokeWidth=2;resizeParent=0;resizeLast=1;shadow=0;dashed=0;align=center;arcSize=4;whiteSpace=wrap;html=1;" parent="1" vertex="1">
          <mxGeometry x="760" y="360" width="160" height="140" as="geometry" />
        </mxCell>
        <mxCell id="T3MYkBjEII2z4H54Sbim-53" value="*titel&lt;br&gt;beschrijving&lt;br&gt;naamSpreker&lt;br&gt;organisatieSpreker" style="align=left;strokeColor=none;fillColor=none;spacingLeft=4;fontSize=12;verticalAlign=top;resizable=0;rotatable=0;part=1;html=1;" parent="T3MYkBjEII2z4H54Sbim-52" vertex="1">
          <mxGeometry y="50" width="160" height="90" as="geometry" />
        </mxCell>
        <mxCell id="fAPfnW3PR2ysRuw9U9JD-8" style="rounded=0;orthogonalLoop=1;jettySize=auto;html=1;entryX=-0.01;entryY=0.681;entryDx=0;entryDy=0;endArrow=ERzeroToMany;endFill=0;startArrow=none;startFill=0;exitX=1;exitY=0.5;exitDx=0;exitDy=0;entryPerimeter=0;" parent="1" source="YMGLGqPWgHZbtb7WeTMV-8" target="T3MYkBjEII2z4H54Sbim-53" edge="1">
          <mxGeometry relative="1" as="geometry">
            <Array as="points">
              <mxPoint x="630" y="470" />
            </Array>
          </mxGeometry>
        </mxCell>
        <mxCell id="fAPfnW3PR2ysRuw9U9JD-17" style="rounded=0;orthogonalLoop=1;jettySize=auto;html=1;entryX=0.534;entryY=0.993;entryDx=0;entryDy=0;endArrow=ERzeroToMany;endFill=0;startArrow=none;startFill=0;entryPerimeter=0;exitX=1;exitY=0.5;exitDx=0;exitDy=0;" parent="1" source="YMGLGqPWgHZbtb7WeTMV-12" target="fAPfnW3PR2ysRuw9U9JD-23" edge="1">
          <mxGeometry relative="1" as="geometry">
            <mxPoint x="640" y="290" as="targetPoint" />
            <Array as="points">
              <mxPoint x="635" y="380" />
            </Array>
          </mxGeometry>
        </mxCell>
        <mxCell id="T3MYkBjEII2z4H54Sbim-54" value="Cursus" style="swimlane;childLayout=stackLayout;horizontal=1;startSize=50;horizontalStack=0;rounded=1;fontSize=14;fontStyle=0;strokeWidth=2;resizeParent=0;resizeLast=1;shadow=0;dashed=0;align=center;arcSize=4;whiteSpace=wrap;html=1;" parent="1" vertex="1">
          <mxGeometry x="220" y="465" width="160" height="170" as="geometry" />
        </mxCell>
        <mxCell id="T3MYkBjEII2z4H54Sbim-55" value="*CursusNaam&lt;br&gt;onderwerp&lt;br&gt;introTekst&lt;br&gt;Niveau&lt;br&gt;inschrijfDatum&lt;br&gt;" style="align=left;strokeColor=none;fillColor=none;spacingLeft=4;fontSize=12;verticalAlign=top;resizable=0;rotatable=0;part=1;html=1;" parent="T3MYkBjEII2z4H54Sbim-54" vertex="1">
          <mxGeometry y="50" width="160" height="120" as="geometry" />
        </mxCell>
        <mxCell id="T3MYkBjEII2z4H54Sbim-56" value="Cursist" style="swimlane;childLayout=stackLayout;horizontal=1;startSize=50;horizontalStack=0;rounded=1;fontSize=14;fontStyle=0;strokeWidth=2;resizeParent=0;resizeLast=1;shadow=0;dashed=0;align=center;arcSize=4;whiteSpace=wrap;html=1;" parent="1" vertex="1">
          <mxGeometry x="-190" y="280" width="160" height="180" as="geometry" />
        </mxCell>
        <mxCell id="T3MYkBjEII2z4H54Sbim-57" value="*emailAdres&lt;br&gt;naam&lt;br&gt;geboorteDatum&lt;br&gt;geslacht&lt;br&gt;adres&lt;br&gt;woonPlaats&lt;br&gt;land" style="align=left;strokeColor=none;fillColor=none;spacingLeft=4;fontSize=12;verticalAlign=top;resizable=0;rotatable=0;part=1;html=1;" parent="T3MYkBjEII2z4H54Sbim-56" vertex="1">
          <mxGeometry y="50" width="160" height="130" as="geometry" />
        </mxCell>
        <mxCell id="T3MYkBjEII2z4H54Sbim-58" value="Certificaat" style="swimlane;childLayout=stackLayout;horizontal=1;startSize=50;horizontalStack=0;rounded=1;fontSize=14;fontStyle=0;strokeWidth=2;resizeParent=0;resizeLast=1;shadow=0;dashed=0;align=center;arcSize=4;whiteSpace=wrap;html=1;" parent="1" vertex="1">
          <mxGeometry x="425" y="750" width="160" height="120" as="geometry" />
        </mxCell>
        <mxCell id="T3MYkBjEII2z4H54Sbim-59" value="*certificaat_id&lt;br&gt;cijfer&lt;br&gt;naamMedewerker" style="align=left;strokeColor=none;fillColor=none;spacingLeft=4;fontSize=12;verticalAlign=top;resizable=0;rotatable=0;part=1;html=1;" parent="T3MYkBjEII2z4H54Sbim-58" vertex="1">
          <mxGeometry y="50" width="160" height="70" as="geometry" />
        </mxCell>
        <mxCell id="T3MYkBjEII2z4H54Sbim-63" value="contentItems" style="swimlane;childLayout=stackLayout;horizontal=1;startSize=50;horizontalStack=0;rounded=1;fontSize=14;fontStyle=0;strokeWidth=2;resizeParent=0;resizeLast=1;shadow=0;dashed=0;align=center;arcSize=4;whiteSpace=wrap;html=1;" parent="1" vertex="1">
          <mxGeometry x="250" y="210" width="160" height="120" as="geometry" />
        </mxCell>
        <mxCell id="T3MYkBjEII2z4H54Sbim-64" value="*content_id&lt;br&gt;percentage&lt;br&gt;publicatieDatum&lt;br&gt;status" style="align=left;strokeColor=none;fillColor=none;spacingLeft=4;fontSize=12;verticalAlign=top;resizable=0;rotatable=0;part=1;html=1;" parent="T3MYkBjEII2z4H54Sbim-63" vertex="1">
          <mxGeometry y="50" width="160" height="70" as="geometry" />
        </mxCell>
        <mxCell id="fAPfnW3PR2ysRuw9U9JD-2" value="Inschrijving" style="swimlane;childLayout=stackLayout;horizontal=1;startSize=50;horizontalStack=0;rounded=1;fontSize=14;fontStyle=0;strokeWidth=2;resizeParent=0;resizeLast=1;shadow=0;dashed=0;align=center;arcSize=4;whiteSpace=wrap;html=1;" parent="1" vertex="1">
          <mxGeometry x="40" y="760" width="160" height="120" as="geometry" />
        </mxCell>
        <mxCell id="fAPfnW3PR2ysRuw9U9JD-3" value="*identifier&lt;br&gt;cursusNaam&lt;br&gt;cursistNaam&lt;br&gt;inschrijfDatum" style="align=left;strokeColor=none;fillColor=none;spacingLeft=4;fontSize=12;verticalAlign=top;resizable=0;rotatable=0;part=1;html=1;" parent="fAPfnW3PR2ysRuw9U9JD-2" vertex="1">
          <mxGeometry y="50" width="160" height="70" as="geometry" />
        </mxCell>
        <mxCell id="fAPfnW3PR2ysRuw9U9JD-4" value="" style="fontSize=12;html=1;endArrow=ERmandOne;rounded=0;startArrow=none;startFill=0;entryX=0.5;entryY=0;entryDx=0;entryDy=0;exitX=1;exitY=0.5;exitDx=0;exitDy=0;" parent="1" source="YMGLGqPWgHZbtb7WeTMV-3" target="fAPfnW3PR2ysRuw9U9JD-2" edge="1">
          <mxGeometry width="100" height="100" relative="1" as="geometry">
            <mxPoint x="50" y="490" as="sourcePoint" />
            <mxPoint x="50" y="900" as="targetPoint" />
            <Array as="points">
              <mxPoint x="120" y="590" />
            </Array>
          </mxGeometry>
        </mxCell>
        <mxCell id="fAPfnW3PR2ysRuw9U9JD-10" value="" style="edgeStyle=entityRelationEdgeStyle;fontSize=12;html=1;endArrow=ERoneToMany;startArrow=none;rounded=0;exitX=1;exitY=0.5;exitDx=0;exitDy=0;entryX=0;entryY=0.25;entryDx=0;entryDy=0;startFill=0;endFill=0;" parent="1" source="YMGLGqPWgHZbtb7WeTMV-1" target="T3MYkBjEII2z4H54Sbim-64" edge="1">
          <mxGeometry width="100" height="100" relative="1" as="geometry">
            <mxPoint x="110" y="450" as="sourcePoint" />
            <mxPoint x="210" y="350" as="targetPoint" />
          </mxGeometry>
        </mxCell>
        <mxCell id="fAPfnW3PR2ysRuw9U9JD-11" style="rounded=0;orthogonalLoop=1;jettySize=auto;html=1;exitX=-0.015;exitY=0.147;exitDx=0;exitDy=0;startArrow=ERmandOne;startFill=0;endArrow=ERoneToMany;endFill=0;entryX=1.01;entryY=0.844;entryDx=0;entryDy=0;entryPerimeter=0;exitPerimeter=0;" parent="1" source="T3MYkBjEII2z4H54Sbim-51" target="T3MYkBjEII2z4H54Sbim-55" edge="1">
          <mxGeometry relative="1" as="geometry">
            <mxPoint x="580" y="640.04" as="sourcePoint" />
            <mxPoint x="450" y="600" as="targetPoint" />
          </mxGeometry>
        </mxCell>
        <mxCell id="fAPfnW3PR2ysRuw9U9JD-12" style="edgeStyle=orthogonalEdgeStyle;rounded=0;orthogonalLoop=1;jettySize=auto;html=1;entryX=0.431;entryY=1.01;entryDx=0;entryDy=0;entryPerimeter=0;endArrow=ERoneToMany;endFill=0;startArrow=ERoneToMany;startFill=0;" parent="1" source="fAPfnW3PR2ysRuw9U9JD-2" target="T3MYkBjEII2z4H54Sbim-55" edge="1">
          <mxGeometry relative="1" as="geometry">
            <Array as="points">
              <mxPoint x="230" y="710" />
              <mxPoint x="289" y="710" />
            </Array>
          </mxGeometry>
        </mxCell>
        <mxCell id="fAPfnW3PR2ysRuw9U9JD-19" style="rounded=0;orthogonalLoop=1;jettySize=auto;html=1;entryX=1;entryY=0.25;entryDx=0;entryDy=0;startArrow=ERmandOne;startFill=0;endArrow=none;endFill=0;exitX=0;exitY=0.5;exitDx=0;exitDy=0;" parent="1" source="YMGLGqPWgHZbtb7WeTMV-10" target="T3MYkBjEII2z4H54Sbim-59" edge="1">
          <mxGeometry relative="1" as="geometry" />
        </mxCell>
        <mxCell id="fAPfnW3PR2ysRuw9U9JD-22" value="interresanteCursus" style="swimlane;childLayout=stackLayout;horizontal=1;startSize=50;horizontalStack=0;rounded=1;fontSize=14;fontStyle=0;strokeWidth=2;resizeParent=0;resizeLast=1;shadow=0;dashed=0;align=center;arcSize=4;whiteSpace=wrap;html=1;" parent="1" vertex="1">
          <mxGeometry x="550" y="140" width="160" height="120" as="geometry" />
        </mxCell>
        <mxCell id="fAPfnW3PR2ysRuw9U9JD-23" value="*cursusNaam&lt;br&gt;" style="align=left;strokeColor=none;fillColor=none;spacingLeft=4;fontSize=12;verticalAlign=top;resizable=0;rotatable=0;part=1;html=1;" parent="fAPfnW3PR2ysRuw9U9JD-22" vertex="1">
          <mxGeometry y="50" width="160" height="70" as="geometry" />
        </mxCell>
        <mxCell id="YMGLGqPWgHZbtb7WeTMV-2" value="" style="edgeStyle=entityRelationEdgeStyle;fontSize=12;html=1;endArrow=none;startArrow=ERoneToMany;rounded=0;exitX=1.002;exitY=0.08;exitDx=0;exitDy=0;exitPerimeter=0;entryX=0;entryY=0.5;entryDx=0;entryDy=0;startFill=0;endFill=0;" edge="1" parent="1" source="T3MYkBjEII2z4H54Sbim-57" target="YMGLGqPWgHZbtb7WeTMV-1">
          <mxGeometry width="100" height="100" relative="1" as="geometry">
            <mxPoint x="-30" y="340" as="sourcePoint" />
            <mxPoint x="250" y="278" as="targetPoint" />
          </mxGeometry>
        </mxCell>
        <mxCell id="YMGLGqPWgHZbtb7WeTMV-1" value="Kijkt Content" style="shape=rhombus;perimeter=rhombusPerimeter;whiteSpace=wrap;html=1;align=center;" vertex="1" parent="1">
          <mxGeometry x="50" y="290" width="120" height="60" as="geometry" />
        </mxCell>
        <mxCell id="YMGLGqPWgHZbtb7WeTMV-4" value="" style="fontSize=12;html=1;endArrow=none;rounded=0;startArrow=ERmandOne;startFill=0;entryX=0;entryY=0.5;entryDx=0;entryDy=0;endFill=0;exitX=0.432;exitY=1.023;exitDx=0;exitDy=0;exitPerimeter=0;" edge="1" parent="1" source="T3MYkBjEII2z4H54Sbim-57" target="YMGLGqPWgHZbtb7WeTMV-3">
          <mxGeometry width="100" height="100" relative="1" as="geometry">
            <mxPoint x="-140" y="490" as="sourcePoint" />
            <mxPoint x="37" y="816" as="targetPoint" />
            <Array as="points">
              <mxPoint x="-120" y="590" />
            </Array>
          </mxGeometry>
        </mxCell>
        <mxCell id="YMGLGqPWgHZbtb7WeTMV-3" value="Schrijft in" style="shape=rhombus;perimeter=rhombusPerimeter;whiteSpace=wrap;html=1;align=center;" vertex="1" parent="1">
          <mxGeometry x="-50" y="560" width="120" height="60" as="geometry" />
        </mxCell>
        <mxCell id="YMGLGqPWgHZbtb7WeTMV-6" value="" style="rounded=0;orthogonalLoop=1;jettySize=auto;html=1;startArrow=ERmany;startFill=0;endArrow=none;endFill=0;entryX=0;entryY=0.5;entryDx=0;entryDy=0;" edge="1" parent="1" source="fAPfnW3PR2ysRuw9U9JD-3" target="YMGLGqPWgHZbtb7WeTMV-5">
          <mxGeometry relative="1" as="geometry">
            <mxPoint x="200" y="845" as="sourcePoint" />
            <mxPoint x="260" y="846" as="targetPoint" />
          </mxGeometry>
        </mxCell>
        <mxCell id="YMGLGqPWgHZbtb7WeTMV-7" style="edgeStyle=orthogonalEdgeStyle;rounded=0;orthogonalLoop=1;jettySize=auto;html=1;exitX=1;exitY=0.5;exitDx=0;exitDy=0;entryX=0;entryY=0.75;entryDx=0;entryDy=0;endArrow=ERoneToMany;endFill=0;" edge="1" parent="1" source="YMGLGqPWgHZbtb7WeTMV-5" target="T3MYkBjEII2z4H54Sbim-58">
          <mxGeometry relative="1" as="geometry" />
        </mxCell>
        <mxCell id="YMGLGqPWgHZbtb7WeTMV-5" value="Word gekoppeld" style="shape=rhombus;perimeter=rhombusPerimeter;whiteSpace=wrap;html=1;align=center;" vertex="1" parent="1">
          <mxGeometry x="260" y="810" width="120" height="60" as="geometry" />
        </mxCell>
        <mxCell id="YMGLGqPWgHZbtb7WeTMV-9" value="" style="rounded=0;orthogonalLoop=1;jettySize=auto;html=1;entryX=0;entryY=0.5;entryDx=0;entryDy=0;endArrow=none;endFill=0;startArrow=ERmandOne;startFill=0;exitX=1;exitY=0.25;exitDx=0;exitDy=0;" edge="1" parent="1" source="T3MYkBjEII2z4H54Sbim-54" target="YMGLGqPWgHZbtb7WeTMV-8">
          <mxGeometry relative="1" as="geometry">
            <mxPoint x="380" y="550" as="sourcePoint" />
            <mxPoint x="760" y="465" as="targetPoint" />
          </mxGeometry>
        </mxCell>
        <mxCell id="YMGLGqPWgHZbtb7WeTMV-8" value="Kijkt" style="shape=rhombus;perimeter=rhombusPerimeter;whiteSpace=wrap;html=1;align=center;" vertex="1" parent="1">
          <mxGeometry x="510" y="480" width="120" height="60" as="geometry" />
        </mxCell>
        <mxCell id="YMGLGqPWgHZbtb7WeTMV-11" value="" style="rounded=0;orthogonalLoop=1;jettySize=auto;html=1;startArrow=ERmandOne;startFill=0;endArrow=none;endFill=0;exitX=0.552;exitY=1.03;exitDx=0;exitDy=0;entryX=1;entryY=0.5;entryDx=0;entryDy=0;exitPerimeter=0;" edge="1" parent="1" source="T3MYkBjEII2z4H54Sbim-51" target="YMGLGqPWgHZbtb7WeTMV-10">
          <mxGeometry relative="1" as="geometry">
            <mxPoint x="863" y="700" as="sourcePoint" />
            <mxPoint x="860" y="820" as="targetPoint" />
            <Array as="points">
              <mxPoint x="870" y="820" />
            </Array>
          </mxGeometry>
        </mxCell>
        <mxCell id="YMGLGqPWgHZbtb7WeTMV-10" value="Module afgerond" style="shape=rhombus;perimeter=rhombusPerimeter;whiteSpace=wrap;html=1;align=center;" vertex="1" parent="1">
          <mxGeometry x="680" y="790" width="120" height="60" as="geometry" />
        </mxCell>
        <mxCell id="YMGLGqPWgHZbtb7WeTMV-13" value="" style="rounded=0;orthogonalLoop=1;jettySize=auto;html=1;entryX=0;entryY=0.5;entryDx=0;entryDy=0;endArrow=none;endFill=0;startArrow=ERzeroToMany;startFill=0;exitX=0.5;exitY=0;exitDx=0;exitDy=0;" edge="1" parent="1" source="T3MYkBjEII2z4H54Sbim-54" target="YMGLGqPWgHZbtb7WeTMV-12">
          <mxGeometry relative="1" as="geometry">
            <mxPoint x="635" y="260" as="targetPoint" />
            <Array as="points">
              <mxPoint x="300" y="380" />
            </Array>
            <mxPoint x="300" y="465" as="sourcePoint" />
          </mxGeometry>
        </mxCell>
        <mxCell id="YMGLGqPWgHZbtb7WeTMV-12" value="Houd bij" style="shape=rhombus;perimeter=rhombusPerimeter;whiteSpace=wrap;html=1;align=center;" vertex="1" parent="1">
          <mxGeometry x="400" y="350" width="120" height="60" as="geometry" />
        </mxCell>
      </root>
    </mxGraphModel>
  </diagram>
</mxfile>
